<?xml version="1.0" encoding="UTF-8" standalone="no"?>
<!-- Created with Inkscape (http://www.inkscape.org/) -->

<svg
   version="1.1"
   id="svg1"
   width="568"
   height="520"
   viewBox="0 0 568 520"
   xmlns="http://www.w3.org/2000/svg"
   xmlns:svg="http://www.w3.org/2000/svg">
  <defs
     id="defs1" />
  <g
     id="g1">
    <path
       style="fill:#4cc5c1;stroke:none"
       d="m 546,165 c -13.15723,10.62543 -25.64807,18.34003 -42,23 3.18839,10.75162 5.56265,21.75024 5.88751,33 0.82089,28.42734 -8.77853,58.63657 -24.79846,82 -13.58343,19.81003 -31.25101,36.10675 -49.08905,51.98697 -17.63513,15.69955 -35.75705,30.52798 -55,44.2215 -15.74286,11.20282 -31.84167,21.87509 -48,32.46261 -6.99002,4.58014 -15.2374,11.47061 -24,11.62448 -6.98355,0.12262 -13.32703,-4.46762 -19,-7.996 C 279.20749,428.58691 268.57492,421.57239 258,414.5224 228.02882,394.54147 199.56297,373.03668 173.00002,348.66626 156.8649,333.86292 141.00679,318.56433 129.13742,300 99.705795,253.96735 95.314331,187.36884 139.02655,148.57623 145.93988,142.44098 153.61633,137.04315 162,133.11136 c 10.33739,-4.84805 21.63037,-7.76572 33,-8.72202 30.57986,-2.57205 59.95424,5.41761 85,23.25525 10.51028,7.48545 19.2207,17.00452 29,25.35541 26.48001,-30.66626 61.28876,-48.9437 102,-49 -2.27106,-32.115417 8.68976,-60.354828 36,-79 V 43 C 367.16257,-8.8718262 261.29391,-13.652405 178,33.650543 143.86372,53.036682 116.12875,79.272705 93.231293,111 c -16.317536,22.60999 -29.131394,49.2652 -37.029938,76 -11.458607,38.78479 -13.535717,81.3208 -5.74691,121 2.377628,12.11255 5.25943,24.34595 9.356125,36 2.417724,6.87781 7.085685,14.56573 7.036636,22 -0.06243,9.46143 -9.341114,19.42065 -14.248016,27 -12.864731,19.87128 -25.608849,39.82037 -37.985816,60 -4.248821,6.92737 -8.7250664,14.2775 -11.4148731,21.98352 -1.1952861,3.42438 -1.931562,7.54907 0.6501093,10.5549 2.7137839,3.15964 7.3393298,3.28205 11.1665088,3.04233 9.034512,-0.56586 18.085417,-2.36026 26.984881,-3.93897 24.019783,-4.26092 48.002502,-8.71212 72,-13.0946 9.6752,-1.76688 22.78476,-6.60297 32.53435,-4.24139 6.73033,1.63021 12.71867,6.9053 18.4662,10.54657 10.59944,6.71518 21.4732,13.03088 32.99945,18.02804 42.87764,18.58951 88.44846,26.08634 135,21.58078 C 419.11371,509.12646 497.58691,453.94907 536.36438,377 558.1228,333.82312 567.19214,285.1228 563.19904,237 561.18347,212.70947 556.09808,187.27502 546,165 M 195,148.58984 c -7.90329,0.87186 -15.78436,2.78196 -23,6.16968 -41.52257,19.49472 -48.24319,67.71793 -34.8699,107.24048 8.30792,24.5527 24.60186,43.11511 42.87019,60.92838 21.35948,20.82742 44.58672,39.69882 68.99971,56.80972 13.46725,9.43915 27.18472,18.58041 41,27.50229 5.67404,3.6643 12.79626,9.69796 20,8.91308 6.21164,-0.67679 11.96625,-5.48831 17,-8.82605 10.38364,-6.88507 20.77933,-13.76001 31,-20.88565 27.18402,-18.95212 53.1463,-39.36419 76.96576,-62.46356 17.05444,-16.53888 32.82837,-33.60065 41.7663,-55.97821 7.1459,-17.89099 10.86151,-37.8222 7.97866,-56.99997 -0.95364,-6.34405 -2.03372,-14.64752 -6.61825,-19.52591 -3.35394,-3.56894 -8.65061,-4.5032 -13.10156,-6.01459 -6.35273,-2.15716 -12.37452,-5.0025 -17.99033,-8.68347 -6.00726,-3.93756 -11.53937,-8.5617 -16.36685,-13.88473 -3.83393,-4.22748 -7.14408,-9.68845 -12.19715,-12.58914 -5.33358,-3.06174 -12.52877,-2.42728 -18.43664,-2.05646 -16.53916,1.03808 -32.05603,7.20614 -45.99994,15.95248 -11.45374,7.18439 -20.76508,16.69919 -29.66681,26.76401 -4.37054,4.94162 -9.82837,12.16128 -17.29071,11.37414 -6.10223,-0.64367 -10.53952,-6.15744 -14.33524,-10.4176 -6.52502,-7.32339 -13.06411,-14.57135 -20.70916,-20.76367 C 250.19841,153.4978 222.83063,145.51968 195,148.58984 Z"
       id="path53" />
  </g>
  <g
     id="layer3">
    <ellipse
       style="fill:#ff676c;fill-opacity:1;stroke-width:1.00995"
       id="path54"
       cx="490.125"
       cy="109.5"
       rx="63.625"
       ry="63.25" />
  </g>
</svg>
